<?xml version="1.0" encoding="utf-8"?>
<!-- Generator: Adobe Illustrator 24.0.3, SVG Export Plug-In . SVG Version: 6.00 Build 0)  -->
<svg version="1.1" id="Layer_1" xmlns="http://www.w3.org/2000/svg" xmlns:xlink="http://www.w3.org/1999/xlink" x="0px" y="0px"
	 viewBox="0 0 2792.7 1179.5" style="enable-background:new 0 0 2792.7 1179.5;" xml:space="preserve">
<style type="text/css">
	.st0{fill:none;}
	.st1{fill-rule:evenodd;clip-rule:evenodd;fill:#ED5911;}
	.st2{fill-rule:evenodd;clip-rule:evenodd;fill:#FEFEFE;}
	.st3{fill:#ED5911;}
	.st4{fill:#6ACF10;}
</style>
<g id="Layer_x0020_1">
	<rect x="-357.6" y="-650.3" class="st0" width="3508" height="2480"/>
	<path class="st1" d="M1421.4,544.7l-380-227l-387-232c-39-13-80,10-80,56v455v463c8,42,49,67,86,44l381-228l387-231
		C1458.4,616.7,1459.4,567.7,1421.4,544.7z"/>
	<rect x="340.4" y="428.7" class="st1" width="137" height="124"/>
	<rect x="204.4" y="576.7" class="st1" width="137" height="124"/>
	<rect x="341.4" y="721.7" class="st1" width="137" height="124"/>
	<rect x="702.4" y="306.7" class="st2" width="162" height="147"/>
	<rect x="589.4" y="811.7" class="st2" width="99.4" height="89.9"/>
	<rect x="104.4" y="719.7" class="st1" width="98.2" height="85.6"/>
	<rect x="525.4" y="462.7" class="st2" width="164" height="149"/>
	<path class="st3" d="M1704.4,187.7c-55,0-106,17-141,49l26,51c26-25,67-41,108-41c61,0,91,34,91,92v14h-98c-101,0-136,50-136,110
		c0,66,48,112,125,112c54,0,92-20,112-54v50h58v-229C1849.4,237.7,1797.4,187.7,1704.4,187.7z M1690.4,521.7c-47,0-75-24-75-61
		c0-33,17-59,78-59h95v53C1772.4,497.7,1736.4,521.7,1690.4,521.7z"/>
	<path class="st3" d="M2075.4,187.7c-54,0-104,17-139,49l25,51c26-25,67-41,107-41c61,0,91,34,91,92v14h-97c-101,0-136,50-136,110
		c0,66,49,112,125,112c53,0,90-20,111-54v50h58v-229C2220.4,237.7,2168.4,187.7,2075.4,187.7z M2061.4,521.7c-46,0-74-24-74-61
		c0-33,17-59,77-59h95v53C2143.4,497.7,2107.4,521.7,2061.4,521.7z"/>
	<path class="st3" d="M2466.4,574.7c100,0,174-81,174-194s-74-193-174-193s-174,80-174,193S2366.4,574.7,2466.4,574.7z
		 M2466.4,514.7c-64,0-113-53-113-134s49-133,113-133s112,52,112,133S2530.4,514.7,2466.4,514.7z"/>
	<polygon class="st3" points="1821.4,641.7 1895.4,641.7 1895.4,1009.7 1832.4,1009.7 1665.4,782.7 1665.4,1009.7 1589.4,1009.7 
		1589.4,641.7 1656.4,641.7 1821.4,869.7 	"/>
	<polygon class="st4" points="2184.4,641.7 2267.4,641.7 2153.4,820.7 2276.4,1011.7 2187.4,1011.7 2107.4,884.7 2030.4,1011.7 
		1939.4,1011.7 2063.4,823.7 1947.4,641.7 2035.4,641.7 2111.4,761.7 	"/>
	<polygon class="st3" points="2503.4,711.7 2503.4,1010.7 2425.4,1010.7 2425.4,711.7 2320.4,711.7 2320.4,641.7 2608.4,641.7 
		2608.4,711.7 	"/>
</g>
</svg>
